<svg width="164" height="49" viewBox="0 0 164 49" fill="none" xmlns="http://www.w3.org/2000/svg">
<path d="M37 37.4824L37 18.9824C37 8.76516 28.7173 0.482436 18.5 0.482435C8.28274 0.482433 1.13952e-05 8.76516 1.00554e-05 18.9824L7.62939e-06 37.4824L37 37.4824Z" fill="#0B477E"/>
<path d="M7.78945 37.4824C7.78945 31.3879 12.73 26.4473 18.8245 26.4473C24.919 26.4473 29.8596 31.3879 29.8596 37.4824L7.78945 37.4824Z" fill="#9EE2FF"/>
<path d="M7.78945 37.4824C7.78945 43.5769 12.73 48.5175 18.8245 48.5175C24.919 48.5175 29.8596 43.5769 29.8596 37.4824L7.78945 37.4824Z" fill="#FFDD55"/>
<path d="M18.5 22.5526C21.5472 22.5526 24.0175 20.0823 24.0175 17.0351C24.0175 13.9878 21.5472 11.5175 18.5 11.5175C15.4527 11.5175 12.9824 13.9878 12.9824 17.0351C12.9824 20.0823 15.4527 22.5526 18.5 22.5526Z" fill="#FAFAFF"/>
<path d="M46.7531 30.6359C46.3905 30.6359 46.1355 30.5623 45.9881 30.4149C45.8408 30.2676 45.7671 30.0296 45.7671 29.7009V19.9429C45.7671 19.7163 45.8521 19.5236 46.0221 19.3649C46.1921 19.1949 46.3848 19.1099 46.6001 19.1099H49.4901C50.3061 19.1099 51.0031 19.2516 51.5811 19.5349C52.1705 19.8069 52.6125 20.1753 52.9071 20.6399C53.2018 21.0933 53.3491 21.5863 53.3491 22.1189C53.3491 22.9689 53.0885 23.6773 52.5671 24.2439C53.1451 24.5159 53.5758 24.8786 53.8591 25.3319C54.1425 25.7739 54.2841 26.3236 54.2841 26.9809C54.2841 28.1596 53.6551 29.0663 52.3971 29.7009C51.1391 30.3243 49.2578 30.6359 46.7531 30.6359ZM50.0681 23.7169C50.5328 23.7169 50.9125 23.5583 51.2071 23.2409C51.5131 22.9123 51.6661 22.5439 51.6661 22.1359C51.6661 21.7393 51.4735 21.4106 51.0881 21.1499C50.7141 20.8779 50.1815 20.7419 49.4901 20.7419H47.4671V23.7169H50.0681ZM47.4671 29.0209C48.9745 28.9983 50.2041 28.8169 51.1561 28.4769C52.1195 28.1369 52.6011 27.6383 52.6011 26.9809C52.6011 26.4936 52.3801 26.1026 51.9381 25.8079C51.4961 25.5019 50.8728 25.3489 50.0681 25.3489H47.4671V29.0209ZM59.1347 30.6019C58.4887 30.6019 57.8937 30.4263 57.3497 30.0749C56.817 29.7236 56.3977 29.2476 56.0917 28.6469C55.7857 28.0349 55.6327 27.3719 55.6327 26.6579C55.6327 25.8533 55.814 25.1053 56.1767 24.4139C56.5394 23.7113 57.0267 23.1559 57.6387 22.7479C58.2507 22.3286 58.908 22.1189 59.6107 22.1189C60.2567 22.1189 60.846 22.3003 61.3787 22.6629C61.9227 23.0256 62.3477 23.5073 62.6537 24.1079C62.971 24.7086 63.1297 25.3546 63.1297 26.0459C63.1297 26.8619 62.9484 27.6213 62.5857 28.3239C62.223 29.0153 61.73 29.5706 61.1067 29.9899C60.4947 30.3979 59.8374 30.6019 59.1347 30.6019ZM59.1347 29.0719C59.5314 29.0719 59.911 28.9359 60.2737 28.6639C60.6364 28.3919 60.9254 28.0293 61.1407 27.5759C61.356 27.1226 61.4637 26.6409 61.4637 26.1309C61.4637 25.7003 61.3787 25.2979 61.2087 24.9239C61.0387 24.5386 60.8064 24.2326 60.5117 24.0059C60.217 23.7679 59.894 23.6489 59.5427 23.6489C59.146 23.6489 58.772 23.7906 58.4207 24.0739C58.0807 24.3459 57.8087 24.7143 57.6047 25.1789C57.4007 25.6323 57.2987 26.1196 57.2987 26.6409C57.2987 27.1509 57.3837 27.5873 57.5537 27.9499C57.735 28.3126 57.9617 28.5903 58.2337 28.7829C58.517 28.9756 58.8174 29.0719 59.1347 29.0719ZM68.0189 30.6019C67.3729 30.6019 66.7779 30.4263 66.2339 30.0749C65.7013 29.7236 65.2819 29.2476 64.9759 28.6469C64.6699 28.0349 64.5169 27.3719 64.5169 26.6579C64.5169 25.8533 64.6983 25.1053 65.0609 24.4139C65.4236 23.7113 65.9109 23.1559 66.5229 22.7479C67.1349 22.3286 67.7923 22.1189 68.4949 22.1189C69.1409 22.1189 69.7303 22.3003 70.2629 22.6629C70.8069 23.0256 71.2319 23.5073 71.5379 24.1079C71.8553 24.7086 72.0139 25.3546 72.0139 26.0459C72.0139 26.8619 71.8326 27.6213 71.4699 28.3239C71.1073 29.0153 70.6143 29.5706 69.9909 29.9899C69.3789 30.3979 68.7216 30.6019 68.0189 30.6019ZM68.0189 29.0719C68.4156 29.0719 68.7953 28.9359 69.1579 28.6639C69.5206 28.3919 69.8096 28.0293 70.0249 27.5759C70.2403 27.1226 70.3479 26.6409 70.3479 26.1309C70.3479 25.7003 70.2629 25.2979 70.0929 24.9239C69.9229 24.5386 69.6906 24.2326 69.3959 24.0059C69.1013 23.7679 68.7783 23.6489 68.4269 23.6489C68.0303 23.6489 67.6563 23.7906 67.3049 24.0739C66.9649 24.3459 66.6929 24.7143 66.4889 25.1789C66.2849 25.6323 66.1829 26.1196 66.1829 26.6409C66.1829 27.1509 66.2679 27.5873 66.4379 27.9499C66.6193 28.3126 66.8459 28.5903 67.1179 28.7829C67.4013 28.9756 67.7016 29.0719 68.0189 29.0719ZM75.3577 30.6189C75.1424 30.6189 74.9497 30.5396 74.7797 30.3809C74.6211 30.2223 74.5417 30.0353 74.5417 29.8199V23.7509H73.1987C72.9721 23.7509 72.7794 23.6716 72.6207 23.5129C72.4621 23.3429 72.3827 23.1503 72.3827 22.9349C72.3827 22.6856 72.4677 22.4873 72.6377 22.3399C72.8077 22.1813 73.0061 22.1019 73.2327 22.1019H74.5417V20.2829C74.5417 20.0676 74.6211 19.8749 74.7797 19.7049C74.9384 19.5349 75.1311 19.4499 75.3577 19.4499C75.5957 19.4499 75.7884 19.5349 75.9357 19.7049C76.0944 19.8636 76.1737 20.0563 76.1737 20.2829V22.1019H77.6187C77.8454 22.1019 78.0381 22.1813 78.1967 22.3399C78.3554 22.4986 78.4347 22.6969 78.4347 22.9349C78.4347 23.1503 78.3554 23.3429 78.1967 23.5129C78.0381 23.6716 77.8454 23.7509 77.6187 23.7509H76.1737V29.8199C76.1737 30.0353 76.0944 30.2223 75.9357 30.3809C75.7771 30.5396 75.5844 30.6189 75.3577 30.6189ZM80.4939 30.6019C80.2672 30.6019 80.0689 30.5226 79.8989 30.3639C79.7289 30.2053 79.6439 30.0069 79.6439 29.7689V20.0619C79.6439 19.7446 79.6835 19.5179 79.7629 19.3819C79.8422 19.2346 79.9895 19.1383 80.2049 19.0929C80.4315 19.0363 80.7942 19.0079 81.2929 19.0079C83.4009 19.0079 84.9762 19.3196 86.0189 19.9429C87.0729 20.5663 87.5999 21.4673 87.5999 22.6459C87.5999 23.5979 87.2655 24.3799 86.5969 24.9919C85.9282 25.6039 85.1179 26.0516 84.1659 26.3349C83.2139 26.6183 82.2675 26.7769 81.3269 26.8109V29.7689C81.3269 30.0069 81.2475 30.2053 81.0889 30.3639C80.9302 30.5226 80.7319 30.6019 80.4939 30.6019ZM81.3269 25.1449C82.4375 25.0769 83.4802 24.8559 84.4549 24.4819C85.4295 24.0966 85.9169 23.4846 85.9169 22.6459C85.9169 22.0226 85.5372 21.5409 84.7779 21.2009C84.0299 20.8609 82.9589 20.6909 81.5649 20.6909H81.3269V25.1449ZM89.8734 30.6019C89.658 30.6019 89.4654 30.5283 89.2954 30.3809C89.1367 30.2223 89.0574 30.0409 89.0574 29.8369V19.9769C89.0574 19.7503 89.131 19.5633 89.2784 19.4159C89.437 19.2573 89.6354 19.1779 89.8734 19.1779C90.0887 19.1779 90.2757 19.2573 90.4344 19.4159C90.6044 19.5746 90.6894 19.7616 90.6894 19.9769V29.8369C90.6894 30.0409 90.6044 30.2223 90.4344 30.3809C90.2644 30.5283 90.0774 30.6019 89.8734 30.6019ZM98.6169 30.7719C98.3903 30.7719 98.2033 30.7096 98.0559 30.5849C97.9199 30.4603 97.8519 30.2959 97.8519 30.0919V29.8539C97.3873 30.3526 96.7413 30.6019 95.9139 30.6019C95.2906 30.6019 94.7296 30.4489 94.2309 30.1429C93.7323 29.8369 93.3413 29.4063 93.0579 28.8509C92.7746 28.2843 92.6329 27.6439 92.6329 26.9299C92.6329 26.1366 92.8029 25.3716 93.1429 24.6349C93.4829 23.8869 93.9589 23.2806 94.5709 22.8159C95.1943 22.3513 95.9083 22.1189 96.7129 22.1189C97.2343 22.1189 97.7046 22.1926 98.1239 22.3399C98.5433 22.4759 98.9796 22.6459 99.4329 22.8499V29.9219C99.4329 30.1486 99.3536 30.3469 99.1949 30.5169C99.0363 30.6869 98.8436 30.7719 98.6169 30.7719ZM96.0329 29.0209C96.3616 29.0209 96.6789 28.9529 96.9849 28.8169C97.3023 28.6809 97.5629 28.5166 97.7669 28.3239L97.8179 23.8869C97.4893 23.7509 97.1323 23.6829 96.7469 23.6829C96.2596 23.6829 95.8289 23.8359 95.4549 24.1419C95.0809 24.4366 94.7919 24.8333 94.5879 25.3319C94.3839 25.8193 94.2819 26.3406 94.2819 26.8959C94.2819 27.5873 94.4349 28.1143 94.7409 28.4769C95.0469 28.8396 95.4776 29.0209 96.0329 29.0209ZM103.085 33.6449C102.881 33.6449 102.705 33.5599 102.558 33.3899C102.41 33.2313 102.337 33.0386 102.337 32.8119C102.337 32.7099 102.365 32.5909 102.422 32.4549L103.901 29.2759L100.858 23.3429C100.79 23.2069 100.756 23.0709 100.756 22.9349C100.756 22.7083 100.835 22.5156 100.994 22.3569C101.164 22.1869 101.368 22.1019 101.606 22.1019C101.787 22.1019 101.946 22.1529 102.082 22.2549C102.218 22.3569 102.32 22.4759 102.388 22.6119L104.785 27.3549L106.927 22.6119C106.995 22.4646 107.097 22.3399 107.233 22.2379C107.38 22.1359 107.539 22.0849 107.709 22.0849C107.913 22.0849 108.088 22.1643 108.236 22.3229C108.383 22.4816 108.457 22.6799 108.457 22.9179C108.457 23.0539 108.434 23.1673 108.389 23.2579L103.85 33.1179C103.782 33.2766 103.68 33.4013 103.544 33.4919C103.408 33.5939 103.255 33.6449 103.085 33.6449Z" fill="white"/>
</svg>
