<svg width="26" height="26" viewBox="0 0 26 26" fill="none" xmlns="http://www.w3.org/2000/svg">
<path d="M24.4697 25.5303C24.7626 25.8232 25.2374 25.8232 25.5303 25.5303C25.8232 25.2374 25.8232 24.7626 25.5303 24.4697L24.4697 25.5303ZM11 20.25C5.89137 20.25 1.75 16.1086 1.75 11H0.25C0.25 16.9371 5.06294 21.75 11 21.75V20.25ZM1.75 11C1.75 5.89137 5.89137 1.75 11 1.75V0.25C5.06294 0.25 0.25 5.06294 0.25 11H1.75ZM11 1.75C16.1086 1.75 20.25 5.89137 20.25 11H21.75C21.75 5.06294 16.9371 0.25 11 0.25V1.75ZM25.5303 24.4697L18.6014 17.5407L17.5407 18.6014L24.4697 25.5303L25.5303 24.4697ZM20.25 11C20.25 13.5545 19.2155 15.866 17.5407 17.5407L18.6014 18.6014C20.5459 16.6569 21.75 13.9683 21.75 11H20.25ZM17.5407 17.5407C15.866 19.2155 13.5545 20.25 11 20.25V21.75C13.9683 21.75 16.6569 20.5459 18.6014 18.6014L17.5407 17.5407Z" fill="#FAFAFF"/>
</svg>
